<svg xmlns="http://www.w3.org/2000/svg" xmlns:xlink="http://www.w3.org/1999/xlink" width="1848.944" height="564.618" viewBox="0 0 1848.944 564.618">
  <defs>
    <linearGradient id="linear-gradient" y1="0.5" x2="1" y2="0.5" gradientUnits="objectBoundingBox">
      <stop offset="0" stop-color="#0032ff"/>
      <stop offset="0.12" stop-color="#0060ff"/>
      <stop offset="0.27" stop-color="#0090ff"/>
      <stop offset="0.42" stop-color="#00b8ff"/>
      <stop offset="0.56" stop-color="#00d7ff"/>
      <stop offset="0.7" stop-color="#00edff"/>
      <stop offset="0.84" stop-color="#00faff"/>
      <stop offset="0.96" stop-color="aqua"/>
    </linearGradient>
  </defs>
  <g id="Group_56" data-name="Group 56" transform="translate(-1528 -64)">
    <g id="Group_32" data-name="Group 32" transform="translate(1721.272 213.425)">
      <path id="Path_78" data-name="Path 78" d="M85.273,310.253a10.481,10.481,0,0,1-1.362-.059,19.857,19.857,0,0,1-10.9-4.147,23.73,23.73,0,0,1-2.814-2.636,19.977,19.977,0,0,1-4.947-13.063h0v-.059h0V70.478h0v-.059h0V70.36h0a19.8,19.8,0,0,1,4.917-13,20.85,20.85,0,0,1,2.873-2.725,20,20,0,0,1,10.811-4.117,13.9,13.9,0,0,1,1.57-.059H195.489c26.954,0,50.088,15.462,60.425,40.372a64.369,64.369,0,0,1-14.188,71.266l-18.276,18.276,18.276,18.276a65.39,65.39,0,0,1-46.237,111.638H85.273Zm48.34-40.046h61.876c15.728,0,21.889-12,23.429-15.639,1.511-3.673,5.628-16.528-5.509-27.635l-18.276-18.276-61.551,61.551ZM105.3,118.818v123.1l61.55-61.55ZM133.613,90.5l61.551,61.551,18.276-18.276c11.108-11.108,7.02-23.963,5.509-27.635S211.247,90.5,195.519,90.5H133.643Z" transform="translate(-65.25 -50.447)" fill="#040480"/>
      <path id="Path_79" data-name="Path 79" d="M86.983,253.906a20.023,20.023,0,0,1-14.158-34.182L210.084,82.465A20.023,20.023,0,1,1,238.4,110.781L101.142,248.041A19.96,19.96,0,0,1,86.983,253.906Z" transform="translate(-61.895 0.865)" fill="#040480"/>
    </g>
    <path id="Path_80" data-name="Path 80" d="M282.309,564.588C126.626,564.588,0,437.962,0,282.309S126.626,0,282.309,0,564.618,126.626,564.618,282.309,437.992,564.618,282.309,564.618Zm0-512.131c-126.715,0-229.822,103.107-229.822,229.822S155.594,512.1,282.309,512.1,512.131,408.994,512.131,282.279,409.023,52.457,282.309,52.457Z" transform="translate(1528 64)" fill="url(#linear-gradient)"/>
    <g id="Group_34" data-name="Group 34" transform="translate(2221.553 264.587)">
      <path id="Path_81" data-name="Path 81" d="M294.19,68.33c35.159,0,52.28,18.483,52.28,44.756,0,14.4-7.316,25.562-18.72,31.279v.918c14.4,7.316,21.474,20.082,21.474,36.077,0,30.834-18.483,46.8-57.759,46.8H234.15V68.36h60.04Zm-22.6,62.795h20.764c11.4,0,15.758-5.243,15.758-15.077s-4.324-15.314-15.758-15.314H271.59v30.361Zm0,64.6h17.12c14.6,0,21.919-3.88,21.919-16.883s-7.316-16.883-20.319-16.883H271.59v33.8Z" transform="translate(-234.15 -66.523)" fill="#040480"/>
      <path id="Path_82" data-name="Path 82" d="M333.072,68.33c37.914,0,60.721,14.84,60.721,52.724,0,26.954-13,40.165-25.8,45.881l34.241,61.2h-42l-27.161-54.8h-14.4v54.8H281V68.33h52.042Zm-14.4,72.6h15.077c13.921,0,21.919-5.035,21.919-19.875,0-15.965-8.442-20.319-24.2-20.319h-12.8Z" transform="translate(-142.23 -66.523)" fill="#040480"/>
      <path id="Path_83" data-name="Path 83" d="M328.33,68.33h37.884v159.8H328.33Z" transform="translate(-49.368 -66.523)" fill="#040480"/>
      <path id="Path_84" data-name="Path 84" d="M389.118,128.441v41.764c0,14.84,6.4,27.4,23.755,27.4,12.559,0,19.164-4.561,22.837-9.36V167.006H408.075V136.646h62.084V202.4c-12.115,15.758-29.235,28.761-58.677,28.761-40.876,0-60.721-23.755-60.721-58.885V126.4c0-35.159,20.319-58.677,61.195-58.677,31.279,0,46.356,15.314,55.923,35.4l-29.443,14.84c-4.325-9.123-10.959-16.439-25.118-16.439-16.439,0-24.2,12.085-24.2,26.954Z" transform="translate(-5.361 -67.72)" fill="#040480"/>
      <path id="Path_85" data-name="Path 85" d="M483.9,162.611H439.143v65.52H401.23V68.33h37.914v61.639H483.9V68.33h37.884v159.8H483.9Z" transform="translate(93.662 -66.523)" fill="#040480"/>
      <path id="Path_86" data-name="Path 86" d="M570.581,68.33v34.715h-41.32V228.16H491.347V103.045H449.79V68.33H570.551Z" transform="translate(188.937 -66.523)" fill="#040480"/>
      <path id="Path_87" data-name="Path 87" d="M558.47,68.33c35.159,0,52.279,18.483,52.279,44.756,0,14.4-7.316,25.562-18.72,31.279v.918c14.4,7.316,21.475,20.082,21.475,36.077,0,30.834-18.483,46.8-57.76,46.8H498.43V68.36h60.04Zm-22.6,62.795h20.763c11.4,0,15.758-5.243,15.758-15.077s-4.325-15.314-15.758-15.314H535.87v30.361Zm0,64.6H552.99c14.6,0,21.919-3.88,21.919-16.883s-7.317-16.883-20.32-16.883H535.87v33.8Z" transform="translate(284.369 -66.523)" fill="#040480"/>
      <path id="Path_88" data-name="Path 88" d="M583.2,193.445h59.8V228.13H545.29V68.33h37.884V193.445Z" transform="translate(376.309 -66.523)" fill="#040480"/>
      <path id="Path_89" data-name="Path 89" d="M584.01,174.044V68.33h37.913V171.971c0,15.077,4.562,24.881,21.683,24.881s21.681-9.8,21.681-24.881V68.33h37.884V174.044c0,35.4-20.083,55.923-59.6,55.923s-59.6-20.556-59.6-55.923Z" transform="translate(452.219 -66.523)" fill="#040480"/>
    </g>
  </g>
</svg>
